PathFileType	4	(X/Y/Z)	/Users/itak/Documents/Research/Walk-IL/dataset/trc/00229_00009.trc
DataRate	CameraRate	NumFrames	NumMarkers	Units	OrigDataRate	OrigDataStartFrame	OrigNumFrames
100.000000	100.000000	4	53	mm	100.000000	501	802
Frame#	Time	RPSI			LPSI			L3			STRN			T10			C7			CLAV			RBAK			LBAK			LSHO			LUPA			LAEL			LAOL			LWTS			LWPS			LFRA			LIFD			LHPS			LHTS			RSHO			RUPA			RAEL			RAOL			RWTS			RWPS			RFRA			RIFD			RHTS			RHPS			RBHD			LFHD			RFHD			LBHD			LHIP			RHIP			RASI			LASI			LKNE			LTHI			LANK			LTIP			LTOE			LMT5			LHEE			RKNE			RTHI			RTIP			RTOE			RMT1			RMT5			RHEE			LMT1			RANK			
		X1	Y1	Z1	X2	Y2	Z2	X3	Y3	Z3	X4	Y4	Z4	X5	Y5	Z5	X6	Y6	Z6	X7	Y7	Z7	X8	Y8	Z8	X9	Y9	Z9	X10	Y10	Z10	X11	Y11	Z11	X12	Y12	Z12	X13	Y13	Z13	X14	Y14	Z14	X15	Y15	Z15	X16	Y16	Z16	X17	Y17	Z17	X18	Y18	Z18	X19	Y19	Z19	X20	Y20	Z20	X21	Y21	Z21	X22	Y22	Z22	X23	Y23	Z23	X24	Y24	Z24	X25	Y25	Z25	X26	Y26	Z26	X27	Y27	Z27	X28	Y28	Z28	X29	Y29	Z29	X30	Y30	Z30	X31	Y31	Z31	X32	Y32	Z32	X33	Y33	Z33	X34	Y34	Z34	X35	Y35	Z35	X36	Y36	Z36	X37	Y37	Z37	X38	Y38	Z38	X39	Y39	Z39	X40	Y40	Z40	X41	Y41	Z41	X42	Y42	Z42	X43	Y43	Z43	X44	Y44	Z44	X45	Y45	Z45	X46	Y46	Z46	X47	Y47	Z47	X48	Y48	Z48	X49	Y49	Z49	X50	Y50	Z50	X51	Y51	Z51	X52	Y52	Z52	X53	Y53	Z53	

502	5.01	-183.8265838623047	1030.098510742188	-284.3285522460938	-82.01289367675781	1023.126586914062	-221.8897552490234	-124.6910629272461	1114.636474609375	-248.7035675048828	-243.8842468261719	1283.843139648438	-13.87400054931641	-143.20361328125	1238.546020507812	-254.2799530029297	-180.7832336425781	1495.849487304688	-182.8075408935547	-240.0127105712891	1402.799560546875	-34.11623764038086	-210.6366577148438	1360.542114257812	-290.1338195800781	-70.6044921875	1463.498046875	-160.8671417236328	-50.21805191040039	1464.11865234375	-56.47038269042969	42.01666259765625	1351.997680664062	-74.04559326171875	74.6734619140625	1142.681884765625	-96.5430908203125	52.1266975402832	1143.150634765625	-181.1408081054688	-2.979228734970093	899.1917724609375	-70.56229400634766	79.48412322998047	883.0538330078125	-76.97943878173828	83.752685546875	1032.583862304688	-92.06337738037109	3.497636079788208	706.7503051757812	-105.832893371582	70.95750427246094	793.5645141601562	-80.10751342773438	6.220523834228516	792.3046264648438	-56.005859375	-355.0107421875	1445.238647460938	-197.0973815917969	-406.7949829101562	1381.316650390625	-243.0868530273438	-450.4406127929688	1106.850708007812	-286.7791748046875	-356.2222900390625	1092.374389648438	-281.7165222167969	-486.1339416503906	894.839111328125	-145.4683227539062	-523.4052734375	883.7007446289062	-221.1792755126953	-478.4073181152344	1040.46142578125	-268.5794982910156	-498.174560546875	706.0803833007812	-132.1784515380859	-527.9940795898438	777.8453369140625	-116.2483596801758	-551.904296875	779.4176635742188	-185.0407409667969	-269.6892700195312	1655.589965820312	-139.3039093017578	-247.5106964111328	1659.266723632812	86.58242034912109	-341.6354064941406	1653.189086914062	53.34961700439453	-159.4954833984375	1659.768676757812	-52.72879791259766	-24.87333297729492	956.057861328125	-60.98615646362305	-327.9722595214844	992.0597534179688	-264.186279296875	-350.5018310546875	1028.289428710938	-158.8764190673828	-117.1318664550781	1001.13818359375	-4.608257293701172	-193.2699432373047	511.1703491210938	72.02494049072266	-119.3339157104492	636.0368041992188	41.11631011962891	-285.6527709960938	34.31159591674805	73.31601715087891	-223.0291900634766	281.6429748535156	64.46640014648438	-378.96826171875	112.7009201049805	250.4247436523438	-299.6355895996094	64.31613922119141	195.5580139160156	-319.4689331054688	35.90364456176758	-0.03552071750164032	-263.1560668945312	506.8738403320312	-288.6724853515625	-342.796142578125	764.6983032226562	-246.5074005126953	-238.319091796875	390.7057189941406	-294.2492980957031	-269.1938171386719	41.11585235595703	-215.6032257080078	-200.2977294921875	41.23958587646484	-220.7902679443359	-237.6934356689453	30.02248954772949	-337.4182434082031	-53.08120346069336	39.87355041503906	-385.8912963867188	-408.27197265625	88.62253570556641	180.5904388427734	-137.1894989013672	31.9346981048584	-386.9664306640625	
503	5.02	-188.1988830566406	1028.975830078125	-278.5864868164062	-86.07915496826172	1021.845642089844	-216.7218780517578	-128.7360534667969	1113.443237304688	-243.2273254394531	-246.3142852783203	1282.890991210938	-8.088459968566895	-147.2046813964844	1237.265869140625	-248.9885406494141	-183.6012115478516	1494.727294921875	-177.4345703125	-242.199951171875	1401.8271484375	-28.35746002197266	-214.3861541748047	1359.539306640625	-284.6427307128906	-73.41834259033203	1461.989868164062	-156.2354125976562	-52.28694915771484	1462.464599609375	-51.95949172973633	39.33210754394531	1349.957885742188	-70.3865966796875	70.81610107421875	1140.45654296875	-93.50232696533203	47.62660598754883	1141.199096679688	-177.9600524902344	-8.013381004333496	897.3477172851562	-67.29017639160156	74.20015716552734	880.7093505859375	-74.42951202392578	79.30978393554688	1030.2890625	-89.28282928466797	-3.28768253326416	705.04736328125	-103.1099166870117	64.90673065185547	791.2494506835938	-77.81602478027344	0.1894389241933823	790.3551635742188	-53.19409561157227	-358.0828247070312	1444.515625	-190.6770629882812	-410.2103576660156	1380.5224609375	-236.2364044189453	-454.3153686523438	1105.899536132812	-278.7660217285156	-359.8271484375	1091.6826171875	-275.0101623535156	-487.7074584960938	893.944091796875	-136.6832580566406	-526.12890625	882.76806640625	-211.7627563476562	-481.91259765625	1039.477661132812	-260.044921875	-497.5499877929688	705.6956176757812	-123.9299240112305	-528.5521240234375	776.6904907226562	-106.8971252441406	-553.5904541015625	778.3092041015625	-175.2118377685547	-272.2089233398438	1654.645874023438	-133.2142028808594	-247.6660919189453	1658.4140625	92.4190673828125	-342.1250305175781	1652.489013671875	60.21339797973633	-161.0993347167969	1658.673461914062	-47.79893493652344	-29.0170783996582	954.6160888671875	-55.93798446655273	-332.350341796875	991.1282348632812	-258.1832275390625	-354.7666320800781	1027.614624023438	-152.7636260986328	-120.8663330078125	999.81396484375	0.7416725158691406	-196.5811462402344	509.6490173339844	76.37446594238281	-122.6443862915039	634.3775024414062	45.56179428100586	-289.0852661132812	33.71392822265625	76.05046081542969	-226.9330291748047	280.0970458984375	68.17414093017578	-379.8835144042969	109.3503189086914	255.7240753173828	-301.3116455078125	62.0250244140625	198.8029174804688	-324.4429016113281	35.74931716918945	3.226435422897339	-266.5058898925781	506.4176025390625	-284.5727844238281	-347.0215148925781	763.7484130859375	-241.2483062744141	-240.8242492675781	390.2638549804688	-291.1253356933594	-269.19287109375	41.10080718994141	-215.5785675048828	-200.3935852050781	41.33094024658203	-220.8506317138672	-237.7968139648438	29.95537757873535	-337.4499816894531	-53.39808654785156	41.31396484375	-386.0529479980469	-410.3132629394531	85.89387512207031	186.0876007080078	-137.4500885009766	32.55917739868164	-386.9517517089844	
504	5.03	-192.5816345214844	1027.86767578125	-272.6584167480469	-90.09461975097656	1020.660034179688	-211.4043121337891	-132.7847137451172	1112.275268554688	-237.5653228759766	-248.7423706054688	1282.02880859375	-2.192636966705322	-151.1337738037109	1236.024780273438	-243.5359954833984	-186.3271484375	1493.65869140625	-171.9676971435547	-244.3617706298828	1400.940673828125	-22.51001739501953	-218.0214538574219	1358.559692382812	-279.0329284667969	-76.16213989257812	1460.513793945312	-151.4672088623047	-54.31722259521484	1460.847778320312	-47.31757354736328	36.64845275878906	1347.927612304688	-66.52056121826172	66.982421875	1138.250366210938	-90.14949035644531	43.14813995361328	1139.236572265625	-174.4803161621094	-12.97538471221924	895.5042724609375	-63.68805694580078	69.01374053955078	878.4058837890625	-71.52350616455078	74.90581512451172	1028.021606445312	-86.17501068115234	-9.887228965759277	703.3348999023438	-99.95693969726562	59.02133941650391	788.9764404296875	-75.11183166503906	-5.697243213653564	788.4088134765625	-49.99025344848633	-361.0523376464844	1443.880981445312	-184.2353515625	-413.5166015625	1379.803466796875	-229.3947296142578	-458.00634765625	1105.02392578125	-270.803955078125	-363.268798828125	1091.064331054688	-268.262939453125	-489.2333068847656	893.1961059570312	-127.9197692871094	-528.6827392578125	881.9420166015625	-202.3641815185547	-485.2351989746094	1038.569702148438	-251.5871887207031	-496.9120178222656	705.4970092773438	-115.6603546142578	-529.0853271484375	775.702880859375	-97.56301879882812	-555.1465454101562	777.3311157226562	-165.4028472900391	-274.6603393554688	1653.782470703125	-127.0601348876953	-247.7590942382812	1657.660766601562	98.30420684814453	-342.5329895019531	1651.900634765625	67.12181091308594	-162.645751953125	1657.656372070312	-42.80093002319336	-33.17351150512695	953.2817993164062	-50.69496154785156	-336.7395629882812	990.2258911132812	-251.9972839355469	-359.0298461914062	1026.998413085938	-146.4894561767578	-124.6167449951172	998.5944213867188	6.261762619018555	-199.9164733886719	508.278564453125	80.92988586425781	-126.0791168212891	632.860595703125	50.19599914550781	-291.6741333007812	33.27596664428711	77.94119262695312	-230.5759582519531	278.6179504394531	71.77264404296875	-380.8769226074219	105.0530395507812	260.0613098144531	-302.6705627441406	59.40945053100586	201.2307434082031	-328.382080078125	35.78080368041992	5.592120170593262	-269.9974060058594	505.9992980957031	-280.2538452148438	-351.3504028320312	762.844970703125	-235.7687530517578	-243.4434051513672	389.8528747558594	-287.8247985839844	-269.1964111328125	41.08643341064453	-215.5510559082031	-200.4947967529297	41.43168640136719	-220.9155578613281	-237.9197845458984	29.8858699798584	-337.4734802246094	-53.77355194091797	42.92912673950195	-386.2504272460938	-412.0934753417969	82.36529541015625	190.4760284423828	-137.8101654052734	33.31599044799805	-386.96630859375	
505	5.04	-197.0072021484375	1026.7978515625	-266.5656433105469	-94.09438323974609	1019.604187011719	-205.9651489257812	-136.8678588867188	1111.152587890625	-231.74169921875	-251.1692352294922	1281.279663085938	3.813525438308716	-155.0101013183594	1234.853637695312	-237.9393615722656	-188.9768218994141	1492.670532226562	-166.4067230224609	-246.5005035400391	1400.163696289062	-16.57182121276855	-221.5607452392578	1357.63134765625	-273.3064880371094	-78.84097290039062	1459.097900390625	-146.5678405761719	-56.31527328491211	1459.295166015625	-42.55324935913086	33.95905685424805	1345.935180664062	-62.4482307434082	63.17564392089844	1136.085815429688	-86.45957183837891	38.70379638671875	1137.2841796875	-170.6826934814453	-17.87641906738281	893.6826782226562	-59.76631927490234	63.93756484985352	876.1693115234375	-68.24004364013672	70.53733062744141	1025.806274414062	-82.715087890625	-16.27359771728516	701.632080078125	-96.38115692138672	53.3148193359375	786.7620239257812	-71.97504425048828	-11.35571765899658	786.5054321289062	-46.36733245849609	-363.9372253417969	1443.359130859375	-177.7650299072266	-416.7289428710938	1379.179809570312	-222.5580902099609	-461.5098876953125	1104.242309570312	-262.9107971191406	-366.5600891113281	1090.524291992188	-261.4734802246094	-490.72509765625	892.6201782226562	-119.1927719116211	-531.0650024414062	881.2352294921875	-193.0155487060547	-488.3739624023438	1037.758056640625	-243.2322387695312	-496.3171997070312	705.4952392578125	-107.3509063720703	-529.6179809570312	774.9111328125	-88.25237274169922	-556.5986938476562	776.5042114257812	-155.6439361572266	-277.0538940429688	1653.0234375	-120.8383407592773	-247.7960357666016	1657.037719726562	104.2410736083984	-342.8663330078125	1651.4521484375	74.07418823242188	-164.1428680419922	1656.742309570312	-37.73614501953125	-37.28256988525391	952.1109619140625	-45.28443908691406	-341.1722717285156	989.3648681640625	-245.6114349365234	-363.2885437011719	1026.443481445312	-140.0126647949219	-128.3426666259766	997.5235595703125	11.93201923370361	-203.3089904785156	507.1407470703125	85.76171112060547	-129.6991424560547	631.5760498046875	55.06168746948242	-293.5115356445312	33.01799774169922	79.12685394287109	-233.9553833007812	277.2919006347656	75.37761688232422	-382.0279235839844	99.93135070800781	263.5421142578125	-303.7891235351562	56.57849502563477	202.9738006591797	-331.339111328125	36.01739501953125	7.208256244659424	-273.6147155761719	505.6269836425781	-275.7025451660156	-355.7670288085938	761.9998779296875	-230.0481719970703	-246.1915435791016	389.4888305664062	-284.3380126953125	-269.205078125	41.07296752929688	-215.5203399658203	-200.6014556884766	41.54378890991211	-220.9849548339844	-238.0661926269531	29.81869888305664	-337.4841003417969	-54.22377014160156	44.74285507202148	-386.4924011230469	-413.6843566894531	78.158935546875	193.8591003417969	-138.277099609375	34.23815155029297	-387.0100708007812	
